<svg xmlns="http://www.w3.org/2000/svg" width="17.55" height="18" viewBox="0 0 17.55 18">
  <g id="Group_173284" data-name="Group 173284" transform="translate(-3 -1)">
    <g id="Group_173285" data-name="Group 173285" transform="translate(3 1)">
      <path id="Path_11444" data-name="Path 11444" d="M4.783,4.6H6.567V7.3h8.917V4.6h1.783V9.1H19.05V4.6a1.8,1.8,0,0,0-1.783-1.8H13.539a2.656,2.656,0,0,0-5.029,0H4.783A1.8,1.8,0,0,0,3,4.6V17.2A1.8,1.8,0,0,0,4.783,19h5.35V17.2H4.783Zm6.242-1.8a.9.9,0,1,1-.892.9A.9.9,0,0,1,11.025,2.8Z" transform="translate(-3 -1)" fill="#383838"/>
      <path id="Path_11445" data-name="Path 11445" d="M21,11.5,15.51,17,12.5,14,11,15.5,15.51,20l6.99-7Z" transform="translate(-4.95 -3)" fill="#383838"/>
    </g>
  </g>
</svg>
