<svg xmlns="http://www.w3.org/2000/svg" width="20" height="27.449" viewBox="0 0 20 27.449">
  <path id="Path_11564" data-name="Path 11564" d="M15.078,19.336A4.328,4.328,0,0,0,19.412,15V6.334a4.334,4.334,0,1,0-8.668,0V15A4.328,4.328,0,0,0,15.078,19.336ZM23.616,15A1.442,1.442,0,0,0,22.2,16.23a7.228,7.228,0,0,1-14.245,0,1.446,1.446,0,0,0-2.86.419A10.1,10.1,0,0,0,13.633,25v3a1.445,1.445,0,1,0,2.889,0V25a10.1,10.1,0,0,0,8.538-8.35A1.443,1.443,0,0,0,23.616,15Z" transform="translate(-5.079 -2)" fill="#888f98"/>
</svg>
